# xmcd CD database file
#
# Track frame offsets:
#	150
#	25358
#	37555
#	58717
#	73763
#	97527
#	112133
#	144158
#	161447
#	182123
#	194949
#	220001
#	235470
#	279305
#
# Disc length: 3920 seconds
#
# Revision: 1
# Processed by: cddbd v1.5.2PL0 Copyright (c) Steve Scherf et al.
# Submitted via: CDex 1.70beta2
#
DISCID=c30f4e0e
DTITLE=Adderley, Julian Cannonball - A Little Taste
DYEAR=1958
DGENRE=Jazz
TTITLE0=Blue Funk
TTITLE1=Chocolate Shake
TTITLE2=A Little Taste
TTITLE3=Jump For Joy
TTITLE4=If Life Were All Peaches And Cream
TTITLE5=Two Left Feet
TTITLE6=Minority
TTITLE7=Bli Blip
TTITLE8=Nothin'
TTITLE9=Brown Skin Gal
TTITLE10=Straight Life
TTITLE11=Tune Of the Hickory Stick
TTITLE12=People Will Say We're In Love
TTITLE13=Just Squeeze Me
EXTD=YEAR: 1958
EXTT0=
EXTT1=
EXTT2=
EXTT3=
EXTT4=
EXTT5=
EXTT6=
EXTT7=
EXTT8=
EXTT9=
EXTT10=
EXTT11=
EXTT12=
EXTT13=
PLAYORDER=
